<svg width="30" height="28" viewBox="0 0 30 28" xmlns="http://www.w3.org/2000/svg">
    <g fill="#CDAC61" fill-rule="nonzero">
        <path d="M7 10.265c-1.1 0-2-.9-2-2v-2c0-1.1.9-2 2-2h3c1.1 0 2 .9 2 2v2c0 1.1-.9 2-2 2H7zM20.2 9.265c-.66 0-1.2-.54-1.2-1.2v-1.6c0-.66.54-1.2 1.2-1.2h3.6c.66 0 1.2.54 1.2 1.2v1.6c0 .66-.54 1.2-1.2 1.2h-3.6zM20.2 16.765c-.66 0-1.2-.54-1.2-1.2v-1.6c0-.66.54-1.2 1.2-1.2h3.6c.66 0 1.2.54 1.2 1.2v1.6c0 .66-.54 1.2-1.2 1.2h-3.6z"/>
        <path d="M19.75 14.765c0-.41-.34-.75-.75-.75h-2.75v-6H19c.41 0 .75-.34.75-.75s-.34-.75-.75-.75h-7c-.41 0-.75.34-.75.75s.34.75.75.75h2.75v12.25c0 1.52 1.23 2.75 2.75 2.75H19c.41 0 .75-.34.75-.75s-.34-.75-.75-.75h-1.5c-.69 0-1.25-.56-1.25-1.25v-4.75H19c.41 0 .75-.34.75-.75z" opacity=".37"/>
        <path d="M20.2 24.265c-.66 0-1.2-.54-1.2-1.2v-1.6c0-.66.54-1.2 1.2-1.2h3.6c.66 0 1.2.54 1.2 1.2v1.6c0 .66-.54 1.2-1.2 1.2h-3.6z"/>
    </g>
</svg>
