<svg width="30" height="28" viewBox="0 0 30 28" xmlns="http://www.w3.org/2000/svg">
    <g fill="#CDAC61" fill-rule="nonzero">
        <path d="M23 16.165c0 3.15-1.8 4.5-4.5 4.5h-9c-2.7 0-4.5-1.35-4.5-4.5v-5.4c0-3.15 1.8-4.5 4.5-4.5h2.7c-.13.38-.2.8-.2 1.25v3.9c0 .97.32 1.79.89 2.36.57.57 1.39.89 2.36.89v1.39c0 .51.58.82 1.01.54l2.89-1.93h2.6c.45 0 .87-.07 1.25-.2v1.7z"/>
        <path d="M25 11.415c0 1.49-.76 2.61-2 3.05-.38.13-.8.2-1.25.2h-2.6l-2.89 1.93c-.43.28-1.01-.03-1.01-.54v-1.39c-.97 0-1.79-.32-2.36-.89-.57-.57-.89-1.39-.89-2.36v-3.9c0-.45.07-.87.2-1.25.44-1.24 1.56-2 3.05-2h6.5c1.95 0 3.25 1.3 3.25 3.25v3.9zM14.75 23.515v-2.85c0-.41-.34-.75-.75-.75s-.75.34-.75.75v2.85H10.4c-.41 0-.75.34-.75.75s.34.75.75.75h7.2c.41 0 .75-.34.75-.75s-.34-.75-.75-.75h-2.85z" opacity=".4"/>
        <path d="M17.69 9.515c0-.41.34-.75.75-.75s.75.34.75.75-.34.75-.75.75c-.42 0-.75-.34-.75-.75zM20.5 9.515c0-.41.34-.75.75-.75s.75.34.75.75-.34.75-.75.75c-.42 0-.75-.34-.75-.75zM14.87 9.515c0-.41.34-.75.75-.75s.75.34.75.75a.749.749 0 1 1-1.5 0z"/>
    </g>
</svg>
