<svg width="30" height="28" viewBox="0 0 30 28" xmlns="http://www.w3.org/2000/svg">
    <g fill="#CDAC61" fill-rule="nonzero">
        <path d="M17.25 23.515v-18.5c0-.41.34-.75.75-.75s.75.34.75.75v18.5c0 .41-.34.75-.75.75s-.75-.34-.75-.75z"/>
        <path d="M15 22.265v-16H9c-2.21 0-4 1.79-4 4v8c0 2.21 1.79 4 4 4h6zM18 22.265v-16h3c2.21 0 4 1.79 4 4v8c0 2.21-1.79 4-4 4h-3z" opacity=".4"/>
        <path d="M9.25 17.765v-7c0-.41.34-.75.75-.75s.75.34.75.75v7c0 .41-.34.75-.75.75s-.75-.34-.75-.75z"/>
    </g>
</svg>
