<svg width="30" height="28" viewBox="0 0 30 28" xmlns="http://www.w3.org/2000/svg">
    <g fill="#CDAC61" fill-rule="nonzero">
        <path d="M15 21.645c0 1.87-.75 2.62-2.63 2.62H7.62c-1.87 0-2.62-.75-2.62-2.62v-4.75c0-1.88.75-2.63 2.62-2.63H10v2.37c0 1.88.75 2.63 2.62 2.63H15v2.38z" opacity=".4"/>
        <path d="M20 16.635c0 1.88-.75 2.63-2.63 2.63h-4.75c-1.87 0-2.62-.75-2.62-2.63v-4.75c0-1.87.75-2.62 2.62-2.62H15v2.37c0 1.88.75 2.63 2.62 2.63H20v2.37z" opacity=".6"/>
        <path d="M25 11.635c0 1.88-.75 2.63-2.63 2.63h-4.75c-1.87 0-2.62-.75-2.62-2.63v-4.75c0-1.87.75-2.62 2.62-2.62h4.75c1.88 0 2.63.75 2.63 2.62v4.75z"/>
    </g>
</svg>
