<svg width="30" height="28" viewBox="0 0 30 28" xmlns="http://www.w3.org/2000/svg">
    <g fill="#CDAC61" fill-rule="evenodd">
        <path d="m18.01 24.255-12 .02v-7.26l-.01-1.5v-6.18c0-.67.34-1.29.89-1.66l4-2.67c.67-.45 1.55-.45 2.22 0l4 2.67c.56.37.89.99.89 1.66v6.18l.01 1.5v7.24z" fill-rule="nonzero" opacity=".4"/>
        <path d="M23.73 23.515v-3c.95-.31 1.64-1.2 1.64-2.25v-2c0-1.31-1.07-2.38-2.38-2.38-1.31 0-2.38 1.07-2.38 2.38v2c0 1.04.68 1.92 1.61 2.24v3.01H5c-.41 0-.75.34-.75.75s.34.75.75.75h17.93c.02 0 .03.01.05.01.02 0 .03-.01.05-.01H25c.41 0 .75-.34.75-.75s-.34-.75-.75-.75h-1.27z" fill-rule="nonzero"/>
        <path d="m6.01 17.015-.01-1.5h12l.01 1.5h-12zM11.25 24.265v-3.75c0-.41.34-.75.75-.75s.75.34.75.75v3.75c0 .41-.34.75-.75.75s-.75-.34-.75-.75z" fill-rule="nonzero"/>
        <path d="M12 13.015a1.75 1.75 0 1 1 0-3.5 1.75 1.75 0 0 1 0 3.5z"/>
    </g>
</svg>
