<svg width="30" height="28" viewBox="0 0 30 28" xmlns="http://www.w3.org/2000/svg">
    <g fill="#CDAC61" fill-rule="evenodd">
        <path d="M11.99 7.175c-.01-.07-.02-.14-.04-.22-.03-.12-.07-.25-.12-.37-.12-.35-.3-.67-.53-.97-.13-.16-.27-.32-.43-.45-.64-.58-1.47-.9-2.34-.9A3.53 3.53 0 0 0 5 7.795c0 .87.32 1.7.9 2.34.13.16.29.3.45.43.3.23.62.41.97.53.12.05.25.09.37.12.08.02.15.03.22.04.09.02.17.03.26.04.12.01.24.02.36.02 1.94 0 3.52-1.58 3.52-3.52 0-.12-.01-.24-.02-.36-.01-.09-.02-.17-.04-.26zM23.73 18.035c-.02-.02-.05-.05-.08-.07-.27-.21-.57-.38-.88-.5a.161.161 0 0 0-.09-.03c-.11-.04-.22-.08-.33-.11-.17-.04-.35-.07-.52-.09-.12-.01-.24-.02-.36-.02-1.94 0-3.52 1.58-3.52 3.52 0 .12.01.24.02.36.02.17.05.35.09.52.03.11.07.22.11.33 0 .03.01.06.03.09.12.31.29.61.5.88.02.03.05.05.07.08.11.14.24.27.37.37.64.58 1.46.9 2.33.9a3.53 3.53 0 0 0 3.53-3.53c0-.87-.32-1.69-.9-2.33-.1-.13-.23-.26-.37-.37zM8.17 17.235c-.17.02-.35.05-.52.09-.11.03-.22.07-.33.11-.03 0-.06.01-.09.03-.31.12-.61.29-.88.5-.03.02-.05.05-.08.07-.14.11-.27.24-.37.37-.58.64-.9 1.46-.9 2.33a3.53 3.53 0 0 0 3.53 3.53c.87 0 1.7-.32 2.34-.9.16-.13.3-.29.43-.45.21-.27.38-.57.5-.88.02-.03.03-.06.03-.09.04-.11.08-.22.11-.33.04-.17.07-.35.09-.52.01-.12.02-.24.02-.36 0-1.94-1.58-3.52-3.52-3.52-.12 0-.24.01-.36.02zM19.14 5.165c-.13.1-.26.23-.37.37-.02.02-.05.05-.07.08-.21.27-.38.57-.5.88-.02.03-.03.06-.03.09-.04.11-.08.22-.11.33-.04.17-.07.35-.09.52-.01.12-.02.24-.02.36 0 1.94 1.58 3.52 3.52 3.52.12 0 .24-.01.36-.02.17-.02.35-.05.52-.09.11-.03.22-.07.33-.11.03 0 .06-.01.09-.03.31-.12.61-.29.88-.5.16-.13.32-.27.45-.43.58-.64.9-1.47.9-2.34a3.53 3.53 0 0 0-3.53-3.53c-.87 0-1.69.32-2.33.9z" fill-rule="nonzero"/>
        <path d="M18.7 22.915c-.21-.27-.38-.57-.5-.88l.03.09c-2.01.84-4.41.85-6.46 0l.03-.09c-.12.31-.29.61-.5.88-.13.16-.27.32-.43.45 1.28.59 2.7.9 4.13.9 1.46 0 2.85-.3 4.14-.9-.13-.1-.26-.23-.37-.37-.02-.03-.05-.05-.07-.08zM7.14 11.035c.01 0 .03.01.04.01a3.464 3.464 0 0 1-.83-.48c-.16-.13-.32-.27-.45-.43-.59 1.28-.9 2.7-.9 4.13 0 1.46.3 2.85.9 4.14.1-.13.23-.26.37-.37.03-.02.05-.05.08-.07.27-.21.57-.38.88-.5l-.09.03c-.43-1.01-.64-2.1-.64-3.23 0-1.11.22-2.22.64-3.23zm16.51-.47c-.27.21-.57.38-.88.5l.09-.03c.42 1.01.64 2.12.64 3.23 0 1.13-.21 2.22-.64 3.23l-.09-.03c.31.12.61.29.88.5.03.02.06.05.08.07.14.11.27.24.37.37.6-1.29.9-2.68.9-4.14 0-1.43-.31-2.85-.9-4.13-.13.16-.29.3-.45.43zm-12.78-5.4c.16.13.3.29.43.45a3.464 3.464 0 0 1 .48.83c0-.01-.01-.03-.01-.04 2.04-.85 4.45-.84 6.46 0l-.03.09c.12-.31.29-.61.5-.88.02-.03.05-.06.07-.08.11-.14.24-.27.37-.37a9.73 9.73 0 0 0-4.14-.9c-1.43 0-2.85.31-4.13.9z" opacity=".4"/>
    </g>
</svg>
