<svg width="30" height="28" viewBox="0 0 30 28" xmlns="http://www.w3.org/2000/svg">
    <g fill="#CDAC61" fill-rule="nonzero">
        <path d="M7.25 9.015c0 2.57 2.01 4.65 4.63 4.74.08-.01.16-.01.22 0h.07a4.738 4.738 0 0 0 4.58-4.74c0-2.62-2.13-4.75-4.75-4.75s-4.75 2.13-4.75 4.75z" opacity=".4"/>
        <path d="M6.93 16.415c-1.27.85-1.97 2-1.97 3.23s.7 2.37 1.96 3.21c1.4.94 3.24 1.41 5.08 1.41 1.84 0 3.68-.47 5.08-1.41 1.26-.85 1.96-1.99 1.96-3.23-.01-1.23-.7-2.37-1.96-3.21-2.79-1.86-7.34-1.86-10.15 0z"/>
        <path d="M19.86 13.475h-.05c-.06 0-.12 0-.17.02-.97.05-1.86-.26-2.53-.83 1.03-.92 1.62-2.3 1.5-3.8a4.64 4.64 0 0 0-.77-2.18 3.592 3.592 0 0 1 5.15 2.92c.16 1.94-1.22 3.64-3.13 3.87z" opacity=".4"/>
        <path d="M23.25 21.235c-1 .55-2.26.81-3.51.78.72-.65 1.14-1.46 1.22-2.32.1-1.24-.49-2.43-1.67-3.38-.67-.53-1.45-.95-2.3-1.26 2.21-.64 4.99-.21 6.7 1.17.92.74 1.39 1.67 1.3 2.63-.08.97-.7 1.81-1.74 2.38z"/>
    </g>
</svg>
