<svg width="30" height="28" viewBox="0 0 30 28" xmlns="http://www.w3.org/2000/svg">
    <g fill="#CDAC61" fill-rule="evenodd">
        <path d="M17.667 12.238a2.47 2.47 0 0 1-2.467 2.467H3c-.733 0-1.333-.6-1.333-1.334v-8.52c0-2.72 2.2-4.92 4.92-4.92h9.84c.693 0 1.24.547 1.24 1.227v11.08z" fill-rule="nonzero"/>
        <path d="M28.333 18.598v1.333c0 2.214-1.786 4-4 4 0-2.2-1.8-4-4-4s-4 1.8-4 4h-2.666c0-2.2-1.8-4-4-4s-4 1.8-4 4c-2.214 0-4-1.786-4-4v-2.666c0-.734.6-1.334 1.333-1.334h12.667A3.335 3.335 0 0 0 19 12.598V5.265c0-.734.6-1.334 1.333-1.334h1.12c.96 0 1.84.52 2.32 1.347l.854 1.493a.336.336 0 0 1-.294.494A3.335 3.335 0 0 0 21 10.598v4a3.335 3.335 0 0 0 3.333 3.333h3.334a.66.66 0 0 1 .666.667z" fill-rule="nonzero"/>
        <path d="M9.667 26.598a2.667 2.667 0 1 1 0-5.333 2.667 2.667 0 0 1 0 5.333zM20.333 26.598a2.667 2.667 0 1 1 0-5.333 2.667 2.667 0 0 1 0 5.333z"/>
        <path d="M28.333 15.931h-4c-.733 0-1.333-.6-1.333-1.333v-4c0-.733.6-1.333 1.333-1.333h1.72l1.934 3.386c.226.4.346.854.346 1.32v1.96z" fill-rule="nonzero"/>
    </g>
</svg>
