<svg width="30" height="28" viewBox="0 0 30 28" xmlns="http://www.w3.org/2000/svg">
    <g fill="#CDAC61" fill-rule="nonzero">
        <path d="M27.293 19.292C26.346 23.56 23 26.6 18.173 26.6h-6.347c-4.826 0-8.173-3.04-9.12-7.307l-.546-2.48c-.267-1.213.453-2.586 1.613-3.053L5.666 13l7.347-2.947A5.428 5.428 0 0 1 15 9.666c.666 0 1.346.133 1.986.386L24.333 13l1.893.76c1.16.467 1.88 1.84 1.614 3.053l-.547 2.48z"/>
        <path d="M24.333 9.851c0 .467-.48.8-.92.614l-5.693-2.28a7.476 7.476 0 0 0-5.453.013l-5.68 2.28a.665.665 0 0 1-.92-.613V7.93c0-2.2 1.8-4 4-4h10.666c2.2 0 4 1.8 4 4v1.92z"/>
        <path d="M11.667 3.931V1.265c0-.734.6-1.334 1.333-1.334h4c.733 0 1.333.6 1.333 1.334V3.93h-6.666z"/>
    </g>
</svg>
