<svg width="30" height="28" viewBox="0 0 30 28" xmlns="http://www.w3.org/2000/svg">
    <path d="M17.014.252c-1.107-.414-2.92-.414-4.027 0L6.334 2.745C4.8 3.318 3.547 5.132 3.547 6.758v9.907c0 1.573 1.04 3.64 2.307 4.587l5.733 4.28c1.88 1.413 4.973 1.413 6.853 0l5.734-4.28c1.266-.947 2.306-3.014 2.306-4.587V6.758c-.026-1.626-1.28-3.44-2.813-4.013L17.014.252zm.746 9.24a2.832 2.832 0 0 1-2.746 2.84h-.134c-1.6-.054-2.8-1.294-2.8-2.84a2.834 2.834 0 0 1 2.827-2.854 2.857 2.857 0 0 1 2.853 2.854zM15 19.892c-1.053 0-2.12-.267-2.92-.814-.76-.506-1.173-1.2-1.186-1.96 0-.746.426-1.466 1.186-1.973 1.614-1.067 4.24-1.067 5.854 0 .76.507 1.186 1.2 1.186 1.96-.013.747-.44 1.467-1.2 1.973-.813.534-1.866.814-2.92.814z" fill="#CDAC61" fill-rule="evenodd"/>
</svg>
