<svg width="30" height="28" viewBox="0 0 30 28" xmlns="http://www.w3.org/2000/svg">
    <g fill="#CDAC61" fill-rule="evenodd">
        <path d="M5.786 1.265C3.133 1.265 1.8 2.61 1.8 5.29v21.307H9v-5c0-.547.454-1 1-1 .547 0 1 .44 1 1v5h7.067V5.291c0-2.68-1.32-4.026-3.973-4.026H5.786zm.947 13c-.547 0-1-.454-1-1 0-.547.453-1 1-1h6.6c.546 0 1 .453 1 1 0 .546-.454 1-1 1h-6.6zm0-5c-.547 0-1-.454-1-1 0-.547.453-1 1-1h6.6c.546 0 1 .453 1 1 0 .546-.454 1-1 1h-6.6z"/>
        <path d="M26.64 25.6v-4a3.163 3.163 0 0 0 2.187-3v-2.667a3.18 3.18 0 0 0-3.174-3.174 3.18 3.18 0 0 0-3.173 3.174v2.666c0 1.387.907 2.56 2.147 2.987V25.6H.333c-.546 0-1 .454-1 1 0 .547.454 1 1 1h25.24c.027 0 .04.014.067.014.027 0 .04-.014.067-.014h3.96c.546 0 1-.453 1-1 0-.546-.454-1-1-1H26.64z" fill-rule="nonzero"/>
    </g>
</svg>
