<svg width="30" height="28" viewBox="0 0 30 28" xmlns="http://www.w3.org/2000/svg">
    <g fill="#cdac61" fill-rule="evenodd">
        <path d="M6.707 6c-.374 0-.72.012-1.04.026-3.16.186-4 1.346-4 4.946v.774c0 .733.6 1.333 1.333 1.333h20c.733 0 1.333-.6 1.333-1.333v-.774C24.333 7 23.32 6 19.293 6H6.707z" fill-rule="nonzero"/>
        <path d="M1.667 16.41v3.88c0 3.974 1.013 4.974 5.04 4.974h12.586c3.96 0 5-.96 5.04-4.76V16.41c0-.734-.6-1.334-1.333-1.334H3c-.733 0-1.333.6-1.333 1.334zM6 22.01c-.547 0-1-.453-1-1 0-.546.453-1 1-1h2.293c.547 0 1 .454 1 1 0 .547-.453 1-1.013 1H6zm5.147 0c-.547 0-1-.453-1-1 0-.546.453-1 1-1h4.586c.547 0 1 .454 1 1 0 .547-.44 1-1 1h-4.586z"/>
        <path d="M28.335 8.053c0-4.173-2.386-5.986-5.986-5.986H10.442c-1.013 0-1.92.146-2.72.453a4.565 4.565 0 0 0-1.64 1c-.24.227-.053.6.293.6H20.87c3 0 5.426 2.427 5.426 5.427v9.56c0 .333.36.52.6.28.92-.974 1.44-2.4 1.44-4.347V8.053z" fill-rule="nonzero"/>
    </g>
</svg>
