<svg width="30" height="28" viewBox="0 0 30 28" xmlns="http://www.w3.org/2000/svg">
    <g fill="#CDAC61" fill-rule="evenodd">
        <path d="M4.333 22.465a4.145 4.145 0 0 0 4.134 4.133h13.066a4.145 4.145 0 0 0 4.134-4.133v-7.2a.66.66 0 0 0-.667-.667H5a.66.66 0 0 0-.667.667v7.2zm5.334-.2c-.107 0-.214-.014-.32-.027-.107-.027-.214-.053-.32-.107-.094-.04-.2-.093-.28-.146a1.34 1.34 0 0 1-.254-.214A1.623 1.623 0 0 1 8 20.598c0-.44.173-.867.493-1.173.067-.08.16-.147.254-.214.08-.053.186-.106.28-.146.106-.054.213-.08.32-.107a1.682 1.682 0 0 1 1.493.467c.32.306.493.733.493 1.173 0 .44-.173.867-.493 1.173-.307.32-.733.494-1.173.494zm11.586-.28c-.08.053-.186.106-.28.146-.106.054-.213.08-.306.107-.12.013-.227.027-.334.027-.106 0-.213-.014-.32-.027a1.503 1.503 0 0 1-.32-.107c-.093-.04-.2-.093-.28-.146a1.34 1.34 0 0 1-.253-.214 1.623 1.623 0 0 1-.493-1.173c0-.44.173-.867.493-1.173.067-.08.16-.147.253-.214.08-.053.187-.106.28-.146.107-.054.214-.08.32-.107.214-.04.427-.04.654 0 .093.027.2.053.306.107.094.04.2.093.28.146.094.067.187.134.254.214.32.306.493.733.493 1.173 0 .44-.173.867-.493 1.173a1.34 1.34 0 0 1-.254.214zM8.467-.069a4.137 4.137 0 0 0-4.134 4.134v3.2A.66.66 0 0 0 5 7.93h20a.66.66 0 0 0 .667-.666v-3.2A4.137 4.137 0 0 0 21.533-.07H8.467zm3.2 5c-.547 0-1-.453-1-1 0-.546.453-1 1-1h6.666c.547 0 1 .454 1 1 0 .547-.453 1-1 1h-6.666z"/>
        <path d="M5 13.265a.66.66 0 0 1-.667-.667V9.931A.66.66 0 0 1 5 9.265h20a.66.66 0 0 1 .667.666v2.667a.66.66 0 0 1-.667.667H5z" fill-rule="nonzero"/>
    </g>
</svg>
