<svg width="30" height="28" viewBox="0 0 30 28" xmlns="http://www.w3.org/2000/svg">
    <path d="M21 1.598H9c-1 0-1.733.04-2.32.12-4.467.493-5.347 3.147-5.347 7.547v8c0 4.4.88 7.053 5.307 7.533.627.093 1.347.133 2.36.133h12c1 0 1.733-.04 2.32-.12 4.467-.493 5.347-3.133 5.347-7.546v-8c0-4.4-.88-7.054-5.307-7.534-.627-.093-1.347-.133-2.36-.133zm-7.2 9c0 .733-.6 1.333-1.333 1.333-.734 0-1.334-.6-1.334-1.333s.587-1.333 1.32-1.333c.747 0 1.347.6 1.347 1.333zm-4 0c0 .733-.6 1.333-1.333 1.333-.734 0-1.334-.6-1.334-1.333s.587-1.333 1.32-1.333c.76 0 1.347.6 1.347 1.333zm-1.44 8.333a1.019 1.019 0 0 1-1.013-1c0-.546.44-1 .986-1h13.334c.546 0 1 .454 1 1 0 .547-.454 1-1 1H8.36zM17 11.598c-.547 0-1-.453-1-1 0-.547.453-1 1-1h4.667c.546 0 1 .453 1 1 0 .547-.454 1-1 1H17z" fill="#CDAC61" fill-rule="evenodd"/>
</svg>
