<svg width="30" height="28" viewBox="0 0 30 28" xmlns="http://www.w3.org/2000/svg">
    <g fill="#CDAC61" fill-rule="evenodd">
        <path d="M27 8.929H3c-.547 0-1-.453-1-1 0-.547.453-1 1-1h1.36l.507-2.413c.48-2.334 1.48-4.48 5.453-4.48h9.36c3.973 0 4.973 2.146 5.453 4.48l.507 2.413H27c.547 0 1 .453 1 1 0 .547-.453 1-1 1z" fill-rule="nonzero"/>
        <path d="M23.509 10.931H6.495c-4.28 0-4.853 2.347-5.066 4.547l-.747 8.12a3.639 3.639 0 0 0 .933 2.787 3.742 3.742 0 0 0 2.774 1.213h2.506c2.16 0 2.574-1.24 2.84-2.053l.267-.8c.307-.92.387-1.147 1.587-1.147h6.826c1.2 0 1.24.133 1.587 1.147l.267.8c.266.813.68 2.053 2.84 2.053h2.506c1.054 0 2.067-.44 2.774-1.213a3.639 3.639 0 0 0 .933-2.787l-.747-8.12c-.2-2.2-.786-4.547-5.066-4.547zM7.002 18.265c-.547 0-1-.454-1-1 0-.547.453-1 1-1h4c.547 0 1 .453 1 1 0 .546-.453 1-1 1h-4zm12 0c-.547 0-1-.454-1-1 0-.547.453-1 1-1h4c.547 0 1 .453 1 1 0 .546-.453 1-1 1h-4z"/>
    </g>
</svg>
