<svg width="160" height="65" viewBox="0 0 160 65" xmlns="http://www.w3.org/2000/svg">
    <g fill="#CDAC61" fill-rule="evenodd">
        <path d="M36.495 55.025c.114.13.192.271.235.423.043.152.059.29.048.416-.01.125-.037.273-.08.443h-.25c-.022-.157-.12-.287-.297-.39a1.272 1.272 0 0 0-.654-.156h-.96c-.043.902-.065 2.03-.065 3.386 0 1.67.043 2.59.128 2.76h-1.649c.011-.357.018-1.567.02-3.631l.001-1.21v-.669c0-.264-.017-.476-.053-.636h-.96c-.26 0-.478.052-.654.155-.177.104-.277.234-.302.391h-.25a2.628 2.628 0 0 1-.078-.443 1.223 1.223 0 0 1 .05-.416c.043-.152.122-.293.235-.423l1.666.07h2.204zm3.538 1.547c.306 0 .532.071.68.213a.665.665 0 0 1 .222.494c0 .183-.066.34-.198.47a.697.697 0 0 1-.568.19.533.533 0 0 0-.062-.004c-.057-.27-.224-.406-.501-.406a.897.897 0 0 0-.454.11.84.84 0 0 0-.302.286 1.49 1.49 0 0 0-.173.448 3.4 3.4 0 0 0-.083.531 8.484 8.484 0 0 0-.019.603c0 .555.01 1.002.027 1.343.018.34.057.693.118 1.057h-1.49c0-.137.01-.62.027-1.45.018-.83.027-1.512.027-2.046 0-.24-.02-.446-.062-.616a.943.943 0 0 0-.165-.381.988.988 0 0 0-.176-.175.462.462 0 0 0-.152-.07v-.186c.398-.24.788-.36 1.169-.36.459 0 .688.205.688.616 0 .01-.009.076-.027.197-.017.122-.03.217-.037.283.107-.24.308-.491.603-.753.296-.262.598-.394.908-.394zm5.646 4.598c.125.224.38.336.764.336v.225a2.26 2.26 0 0 1-.566.216c-.242.063-.46.095-.657.095a.868.868 0 0 1-.616-.25c-.176-.168-.277-.335-.302-.501a1.294 1.294 0 0 1-.61.553c-.28.132-.557.198-.83.198-.542 0-.954-.135-1.239-.403a1.27 1.27 0 0 1-.427-.954c0-.324.108-.608.323-.852.215-.244.495-.427.84-.55a3.369 3.369 0 0 1 1.143-.186c.224 0 .446.027.667.08.014-.287.021-.5.021-.636 0-.204-.01-.38-.029-.529a1.752 1.752 0 0 0-.11-.423.63.63 0 0 0-.242-.305.728.728 0 0 0-.403-.105c-.235 0-.417.078-.547.235-.13.157-.17.349-.12.576a1.008 1.008 0 0 1-.614.215.682.682 0 0 1-.446-.15.486.486 0 0 1-.184-.396c0-.317.194-.577.582-.781.388-.204.83-.306 1.329-.306.672 0 1.2.137 1.585.411.384.274.576.671.576 1.192 0 .1-.003.304-.01.611s-.01.61-.01.907c0 .811.044 1.304.132 1.477zm-1.51-1.622a7.981 7.981 0 0 0-.363.027c-.117.012-.26.039-.43.08a1.94 1.94 0 0 0-.435.158.932.932 0 0 0-.312.268.642.642 0 0 0-.13.398c0 .227.074.41.224.551.149.14.322.21.517.21.342 0 .659-.1.95-.3a32.979 32.979 0 0 1-.021-1.392zm8.097 2.359h-1.484l-.016-.11a1.53 1.53 0 0 1-.016-.221c0-.267.004-.709.01-1.325.008-.616.011-1.059.011-1.33.007-.49-.037-.845-.133-1.064-.096-.219-.27-.328-.523-.328-.285 0-.528.045-.729.135-.2.09-.392.212-.573.366 0 1.626.01 2.648.032 3.065.028.364.058.635.09.812h-1.532l.011-.316.043-3.18a2.152 2.152 0 0 0-.083-.674c-.059-.185-.123-.314-.192-.386a.575.575 0 0 0-.195-.142l-.085-.04v-.186c.416-.24.81-.36 1.18-.36.213 0 .384.057.512.172a.685.685 0 0 1 .23.414l-.011.285a4.577 4.577 0 0 1 .758-.601c.16-.103.33-.183.512-.238a1.9 1.9 0 0 1 .555-.083c.445 0 .807.13 1.086.391.28.26.424.581.435.962-.014.721-.02 1.43-.016 2.126s.045 1.315.123 1.856zm4.526-3.777-.198-.04a1.336 1.336 0 0 0-.242-.43 1.124 1.124 0 0 0-.345-.281 1.65 1.65 0 0 0-.365-.138 1.506 1.506 0 0 0-.35-.042c-.22 0-.42.046-.598.14a.477.477 0 0 0-.267.456c0 .11.055.216.163.318.109.101.251.194.427.278.176.083.37.169.58.258.21.088.42.186.632.293.212.106.405.222.582.348.176.125.318.278.427.458.108.18.162.377.162.59 0 .535-.2.953-.603 1.253-.402.3-.921.45-1.558.45-.491 0-.91-.122-1.255-.367-.345-.246-.517-.527-.517-.844 0-.154.039-.287.117-.4.025.236.212.45.56.643a2.18 2.18 0 0 0 1.063.288c.284 0 .528-.05.73-.148.204-.099.305-.253.305-.463 0-.12-.07-.237-.208-.351a2.098 2.098 0 0 0-.518-.3c-.206-.087-.43-.19-.672-.311a7.579 7.579 0 0 1-.673-.376c-.206-.13-.379-.3-.517-.508a1.218 1.218 0 0 1-.209-.689c0-.5.19-.9.569-1.197.379-.297.881-.446 1.508-.446.58 0 1.097.13 1.553.391a1.215 1.215 0 0 1-.021.749c-.054.162-.141.301-.262.418zm3.405 6.24h-1.532l.011-.478c.007-.305.01-.566.01-.783v-1.077c0-.852.008-1.691.022-2.52l.016-1.247a1.64 1.64 0 0 0-.165-.726c-.104-.197-.235-.32-.395-.37v-.186l.15-.09c.102-.06.25-.12.442-.18s.38-.09.566-.09c.256 0 .448.053.576.16.128.107.187.229.176.365a2.43 2.43 0 0 1 .598-.403c.235-.115.466-.173.694-.173.288 0 .564.056.827.166.264.11.502.27.716.478.213.209.383.484.51.826.126.343.189.728.189 1.155 0 .28-.037.557-.11.829a2.824 2.824 0 0 1-.891 1.415c-.215.183-.476.33-.782.438a2.95 2.95 0 0 1-.993.163c-.195 0-.448-.032-.758-.095 0 .417.008.85.022 1.3.014.448.048.823.101 1.124zm.603-6.966c-.252 0-.482.048-.688.145-.025.982-.038 2.049-.038 3.2l.016.572c.282.07.568.105.86.105a.962.962 0 0 0 .504-.133c.148-.088.265-.2.352-.333.088-.134.16-.29.217-.47.056-.181.095-.353.114-.517.02-.163.03-.329.03-.496 0-.63-.128-1.134-.382-1.51-.254-.375-.583-.563-.985-.563zm5.097 1.568a3.078 3.078 0 0 1 .233-1.165c.076-.182.181-.33.315-.446a.672.672 0 0 1 .45-.172c.385 0 .714.227.988.68.274.455.41 1.007.41 1.659 0 .55-.104 1.008-.314 1.372-.21.364-.466.546-.769.546-.245 0-.47-.112-.672-.336-.203-.223-.36-.525-.472-.904a4.337 4.337 0 0 1-.169-1.234zm-1.483.42c0 .037.001.082.005.136.004.053.013.14.03.262a3.19 3.19 0 0 0 .416 1.203c.08.131.185.263.315.395s.274.245.432.338c.158.094.35.17.574.228.224.059.468.088.73.088.549 0 1.044-.133 1.487-.398a2.813 2.813 0 0 0 1.385-2.437 3.05 3.05 0 0 0-.205-1.147 2.224 2.224 0 0 0-.558-.831 2.466 2.466 0 0 0-.798-.489 2.651 2.651 0 0 0-.942-.168c-.548 0-1.041.125-1.48.374-.44.248-.782.587-1.026 1.016-.243.43-.365.906-.365 1.43zm8.23 2.515h-1.49c0-.137.01-.62.027-1.45.018-.83.027-1.512.027-2.046 0-.24-.02-.446-.061-.616a.943.943 0 0 0-.166-.381.988.988 0 0 0-.176-.175.462.462 0 0 0-.152-.07v-.186c.399-.24.788-.36 1.169-.36.459 0 .688.205.688.616 0 .01-.008.076-.026.197-.018.122-.03.217-.038.283.107-.24.308-.491.604-.753.295-.262.597-.394.907-.394.306 0 .533.071.68.213a.665.665 0 0 1 .222.494c0 .183-.066.34-.198.47a.697.697 0 0 1-.568.19.533.533 0 0 0-.061-.004c-.057-.27-.225-.406-.502-.406a.897.897 0 0 0-.454.11.84.84 0 0 0-.301.286 1.49 1.49 0 0 0-.174.448 3.4 3.4 0 0 0-.083.531 8.484 8.484 0 0 0-.018.603c0 .555.009 1.002.026 1.343.018.34.057.693.118 1.057zm4.622-6.03-.123.85h1.02c.107 0 .221-.012.344-.037.123-.025.2-.067.232-.128.022.07.032.152.032.246 0 .41-.313.616-.94.616-.056 0-.174-.005-.354-.015a8.007 8.007 0 0 0-.366-.015v2.309a4.37 4.37 0 0 0 0 .305c.004.107.008.213.014.318a1.187 1.187 0 0 0 .168.551c.046.072.113.13.2.173a.68.68 0 0 0 .307.065c.22 0 .45-.034.688-.102.239-.069.388-.16.449-.273a.635.635 0 0 1-.059.628c-.132.206-.337.37-.617.491-.279.122-.579.183-.899.183-.334 0-.611-.037-.83-.11a.992.992 0 0 1-.499-.34 1.353 1.353 0 0 1-.235-.52 3.355 3.355 0 0 1-.064-.713c0-.254.018-.631.054-1.132.035-.5.053-.866.053-1.097 0-.394-.032-.63-.096-.706a1.2 1.2 0 0 0-.544-.37l.053-.306a.558.558 0 0 0 .128-.02 1.35 1.35 0 0 0 .622-.36c.137-.131.266-.295.387-.492h.875zm9.511-.086 1.948 5.234c.143.384.282.678.417.882h-1.75l-.022-.166a1.498 1.498 0 0 0-.086-.335l-.645-1.723h-2.504l-.779 2.058-.032.166h-1.035l2.46-5.92a1.26 1.26 0 0 1 .606-.78c.311-.181.702-.287 1.171-.317.072.347.155.647.251.901zm-.4 3.21-.987-2.634-1.004 2.635h1.991zm3.613 1.789.006-.666c.003-.361.005-.798.005-1.313 0-.547-.055-.965-.165-1.252a.604.604 0 0 0-.326-.36l-.075-.03v-.186c.146-.09.324-.173.534-.248.21-.075.402-.112.576-.112.175 0 .32.025.435.075.116.05.202.124.257.223a.994.994 0 0 1 .112.308c.02.106.03.237.03.39 0 .207-.008.535-.022.984-.014.45-.022.794-.022 1.035 0 .193.003.353.008.478.006.125.022.262.048.41a1.1 1.1 0 0 0 .113.349.593.593 0 0 0 .531.296c.28 0 .532-.047.752-.138.22-.092.397-.208.529-.348 0-.077.003-.367.01-.87.007-.502.01-.95.01-1.344 0-.758-.186-1.192-.56-1.303v-.185c.107-.077.27-.156.492-.238.22-.082.418-.122.592-.122.181 0 .332.025.451.075.12.05.207.123.264.22a.988.988 0 0 1 .118.296c.021.1.032.218.032.355l-.006.253a203.927 203.927 0 0 0-.016 2.507c0 .55.08.885.24 1.002.14.116.346.175.62.175v.225c-.075.054-.239.119-.491.196a2.36 2.36 0 0 1-.678.115.958.958 0 0 1-.422-.09.806.806 0 0 1-.296-.233 1.357 1.357 0 0 1-.174-.293c-.042-.1-.069-.2-.08-.3-.21.26-.487.478-.832.653-.345.175-.72.263-1.127.263-.42 0-.768-.125-1.046-.376-.277-.25-.42-.542-.427-.876zm8.033-4.914-.123.852h1.02c.107 0 .221-.013.344-.038.123-.025.2-.067.232-.128.022.07.032.152.032.246 0 .41-.313.616-.94.616-.056 0-.174-.005-.354-.015a8.007 8.007 0 0 0-.366-.015v2.309a4.37 4.37 0 0 0 0 .305c.004.107.008.213.014.318a1.187 1.187 0 0 0 .168.551c.046.072.113.13.2.173a.68.68 0 0 0 .307.065c.22 0 .45-.034.688-.102.239-.069.388-.16.449-.273a.635.635 0 0 1-.059.628c-.132.206-.337.37-.616.491-.28.122-.58.183-.9.183-.334 0-.61-.037-.83-.11a.992.992 0 0 1-.499-.34 1.353 1.353 0 0 1-.235-.52 3.355 3.355 0 0 1-.064-.713c0-.254.018-.631.054-1.132.035-.5.053-.866.053-1.097 0-.394-.032-.63-.096-.706a1.2 1.2 0 0 0-.544-.37l.053-.306a.558.558 0 0 0 .128-.02 1.35 1.35 0 0 0 .622-.36c.137-.131.266-.295.387-.492h.875zm4.147 1.618a4.117 4.117 0 0 1 .755-.606c.159-.1.329-.178.51-.233.182-.055.369-.083.56-.083.445 0 .81.132 1.095.394.284.262.427.581.427.959l-.006.994-.005.944c0 .788.04 1.47.118 2.044h-1.484l-.016-.11a1.53 1.53 0 0 1-.016-.221c0-.267.003-.709.01-1.325.008-.616.011-1.059.011-1.33 0-.497-.045-.853-.136-1.069-.09-.215-.264-.323-.52-.323-.285 0-.528.045-.729.135-.201.09-.392.212-.574.366v1.823c0 .374.01.737.027 1.09.018.352.05.673.096.964h-1.532c.025-1.119.038-2.42.04-3.905.002-1.484.006-2.228.014-2.23 0-.338-.058-.608-.174-.81-.116-.202-.243-.321-.382-.358v-.185l.15-.075c.103-.054.247-.106.432-.156s.363-.075.534-.075c.342 0 .576.084.705.25.128.168.192.425.192.772 0 .17-.015.518-.046 1.042-.03.524-.049.963-.056 1.317zm6.106 1.478a3.078 3.078 0 0 1 .232-1.165c.077-.182.182-.33.315-.446a.672.672 0 0 1 .451-.172c.385 0 .714.227.988.68.274.455.41 1.007.41 1.659 0 .55-.104 1.008-.314 1.372-.21.364-.466.546-.769.546-.245 0-.47-.112-.672-.336-.203-.223-.36-.525-.473-.904a4.337 4.337 0 0 1-.168-1.234zm-1.484.42c0 .037.002.082.006.136.003.053.013.14.03.262a3.19 3.19 0 0 0 .415 1.203c.08.131.185.263.315.395s.274.245.433.338c.158.094.35.17.573.228.225.059.468.088.732.088.548 0 1.043-.133 1.486-.398a2.813 2.813 0 0 0 1.385-2.437 3.05 3.05 0 0 0-.205-1.147 2.224 2.224 0 0 0-.558-.831 2.466 2.466 0 0 0-.798-.489 2.651 2.651 0 0 0-.942-.168c-.548 0-1.042.125-1.481.374-.44.248-.781.587-1.025 1.016-.244.43-.366.906-.366 1.43zm8.23 2.515h-1.488c0-.137.008-.62.026-1.45s.027-1.512.027-2.046c0-.24-.02-.446-.061-.616a.943.943 0 0 0-.166-.381.988.988 0 0 0-.176-.175.462.462 0 0 0-.152-.07v-.186c.398-.24.788-.36 1.169-.36.459 0 .688.205.688.616 0 .01-.009.076-.026.197-.018.122-.03.217-.038.283.107-.24.308-.491.603-.753.296-.262.598-.394.908-.394.306 0 .533.071.68.213a.665.665 0 0 1 .222.494c0 .183-.066.34-.198.47a.697.697 0 0 1-.568.19.533.533 0 0 0-.062-.004c-.057-.27-.224-.406-.501-.406a.897.897 0 0 0-.454.11.84.84 0 0 0-.302.286 1.49 1.49 0 0 0-.173.448 3.4 3.4 0 0 0-.083.531 8.484 8.484 0 0 0-.018.603c0 .555.008 1.002.026 1.343.018.34.057.693.118 1.057zm4.58-2.234c0 .955.04 1.7.118 2.234h-1.532l.058-3.496c0-.214-.02-.404-.058-.569a1.288 1.288 0 0 0-.134-.368.843.843 0 0 0-.165-.198.473.473 0 0 0-.139-.092.276.276 0 0 0-.064-.016v-.185c.416-.24.81-.36 1.18-.36.526 0 .79.325.79.976 0 .1-.01.27-.027.509a8.01 8.01 0 0 0-.027.558v1.007zm-1.542-4.363c0-.2.074-.37.224-.508a.765.765 0 0 1 .539-.208c.2 0 .37.07.515.208a.678.678 0 0 1 .216.508c0 .19-.072.353-.216.486a.732.732 0 0 1-.515.2.781.781 0 0 1-.54-.2.628.628 0 0 1-.223-.486zm4.862.566-.123.852h1.02c.106 0 .221-.013.344-.038.123-.025.2-.067.232-.128.021.07.032.152.032.246 0 .41-.313.616-.94.616-.056 0-.174-.005-.354-.015a8.007 8.007 0 0 0-.366-.015v2.309a4.37 4.37 0 0 0 0 .305c.004.107.008.213.014.318a1.187 1.187 0 0 0 .168.551c.046.072.113.13.2.173a.68.68 0 0 0 .307.065c.22 0 .45-.034.688-.102.239-.069.388-.16.449-.273a.635.635 0 0 1-.06.628c-.13.206-.336.37-.616.491-.279.122-.579.183-.899.183-.334 0-.611-.037-.83-.11a.992.992 0 0 1-.499-.34 1.353 1.353 0 0 1-.235-.52 3.355 3.355 0 0 1-.064-.713c0-.254.018-.631.054-1.132.035-.5.053-.866.053-1.097 0-.394-.032-.63-.096-.706a1.2 1.2 0 0 0-.545-.37l.054-.306a.558.558 0 0 0 .128-.02 1.35 1.35 0 0 0 .622-.36c.137-.131.266-.295.387-.492h.875zm4.387 6.02-.128-.05a.889.889 0 0 1-.285-.187.742.742 0 0 1-.216-.328l-.956-2.85a3.608 3.608 0 0 0-.232-.566 2.503 2.503 0 0 0-.24-.388 1.725 1.725 0 0 0-.216-.23 1.137 1.137 0 0 0-.16-.123.302.302 0 0 0-.08-.036l-.011-.185c.128-.087.287-.163.477-.23s.368-.1.531-.1c.307 0 .53.068.673.205.142.137.256.356.342.656.07.387.355 1.235.854 2.544l.13.253c.08.156.124.243.131.263l.053-.21c.036-.144.073-.262.113-.356l.688-1.848c.1-.264.15-.479.15-.646 0-.164-.061-.279-.182-.346l-.021-.185c.1-.09.234-.168.403-.233s.328-.097.477-.097c.257 0 .385.126.385.38 0 .177-.091.478-.273.902l-2.177 5.028c-.078.18-.144.327-.198.439a6.832 6.832 0 0 1-.208.395 1.772 1.772 0 0 1-.259.363c-.087.09-.19.18-.307.27-.117.091-.249.156-.395.196a1.81 1.81 0 0 1-.48.06c-.327 0-.584-.117-.771-.35-.187-.234-.243-.525-.168-.872a.764.764 0 0 0 .344.206c.158.053.318.08.478.08.27 0 .5-.048.69-.143a.824.824 0 0 0 .404-.408l.512-1.057.128-.215z" fill-rule="nonzero"/>
        <path d="M81.2 42.92s1.1-.91 1.243-5.171c0 0 .383-2.25-.622-12.976 0 0-1.147-15.754-1.004-16.089 0 0 1.43 1.772 1.766 1.916 0 0 .353.403-.283-1.916l-2.248-6.512-1.34 2.586v.622L81.2 42.92zM67.026 27.997 64.284 26.4l1.658-2.426 2.614 1.723zM60.457 25.38l1.658-2.331-2.646-1.82-1.34 1.916-2.71-1.724-1.403 2.554 2.647 1.723 1.403-1.979zM54.813 9.747S68.258 3.46 69.565 3.332c0 0-.076.886-.395 1.269l-14.468 6.38s-.3.132.111-1.234M111.273 9.747s13.445-6.287 14.752-6.415c0 0-.076.886-.395 1.269l-14.468 6.38s-.3.132.111-1.234M107.524 25.95s-.2-1.173-1.383-.493l-.773.493s.984.703 2.555 1.056c0 0 .07.043.28 0 .217-.046 2.297-1.314 2.297-1.314l-.586 1.642-.258.211-4.84 2.98-.948.888s.375-1.874.61-2.085l1.265-.958s-1.64-.614-1.687-.872c0 0 .867-2.721 2.952-3.824 0 0 .82-.281 1.196 0 0 0 .304.364.117 1.267 0 0-.235.985-.797 1.009M124.402 14.86s-.076.432-.305.432c0 0-1.04-.66-1.141-.889 0 0-.026-1.752.888-1.523 0 0 1.725.457 2.207 3.911 0 0 .507-4.369 1.903-4.546 0 0 .685-.102 1.293.914l-.38 1.219s-.838-.99-1.218-.94c0 0-.507.353-.634 1.078 0 0-.507 3.342-1.091 3.723 0 0-.29.387-.54-1.25a1.602 1.602 0 0 0-.058-.248c-.131-.406-.563-1.668-.924-1.88M38.176 6.659s-.096.542-.383.542c0 0-1.307-.83-1.435-1.117 0 0-.032-2.202 1.116-1.915 0 0 2.169.574 2.774 4.916 0 0 .638-5.49 2.392-5.714 0 0 .86-.128 1.626 1.15l-.478 1.531s-1.053-1.245-1.53-1.18c0 0-.614.339-.798 1.354 0 0-.97 4.062-1.371 4.678 0 0-.095.484-.702-1.724 0 0-.67-2.202-1.211-2.521M112.018 44.277 114.665 46l-1.467 2.362-2.55-1.66-1.436 2.139-2.678-1.66 1.53-2.33 2.486 1.525z"/>
        <path d="M59.788 36.807c-.015-.021-1.908-2.75-.383-3.99 0 0 1.435-1.564 2.168-.192 0 0 .893 1.82.542 2.618l-2.327 1.564zm14.763-6.927L72.606 9.035s-.032-.893.287-.223c0 0 1.116 2.043 1.276 1.5l-2.232-8.138h-.001L70.47 4.566c.005.006.382.386.382.766 0 .384 1.786 23.367 1.786 23.367s.534 4.97.57 6.856c.009.425-.23.815-.61 1.003-1.272.63-4.258 1.577-4.807-3.07 0 0-2.773 4.212-6.057 4.149h-.001c.03-.033 3.303-3.533.51-8.108 0 0-4.37-.819-4.4 6.767-.002.341.127 1.155.223 1.344 0 0-4.018 2.072-5.995-2.333 0 0-.733-3.352-.797-7.278 0 0-.415-11.045-.574-13.727 0 0-.414-11.067-1.02-12.288h-.001l-1.18 3.063c.002.014 1.61 22.618.941 26.59 0 0-10.474 12.067-19.419 7.375 0 0-4.781-3.638-.432-12.063.001-.002.003-.003.005-.003.082.016 1.845.302 3.13-4.047 0 0 .263-.622-.072-.861 0 0-.168.168-.455.694 0 .001-.43 1.771-1.626 1.556 0 0-2.121-.786-.526-3.83l3.245-5.77.18-.725a.168.168 0 0 0 0-.083l-.084-.308s0-.002-.001-.001c-.042.05-4.752 5.7-5.07 10.054 0 0-.478 1.596.83 3.097 0 0-4.178 6.672-2.137 12.13 0 0 1.243 4.884 8.61 4.054 0 0 4.942.255 13.583-9.13 0 0 .67-2.106.83-2.106 0 0-.32 6.352 2.646 8.459 0 0 2.072 2.042 6.407-.67h.003c.054.05 3.79 3.431 7.556-3.065 0 0 .32-.255.255.447 0 0 .382 3.116 3.3 2.81a.147.147 0 0 1 .031 0c.211.023 2.629.178 3.94-4.246 0 0 .733-2.043.382-5.555zM117.834 25.958c-.664.591-1.321.62-1.972.248-.65-.372.62-2.016.62-2.016s2.017 1.176 1.352 1.768m-1.104-3.412s-2.107 2.605-1.55 4.962c0 0 .434.962 1.55.527 1.115-.434 1.641-.744 1.734-2.232.093-1.489.434-1.954-1.734-3.257"/>
        <path d="M62.857 13.32s-.24 1.1-.216 1.292c0 0 .263 0 .216.622 0 0-.526 2.85 1.1 2.945 1.626.096 1.937-1.724 2.033-2.011.095-.287.334 1.221 1.698 1.15 1.363-.072 1.124-1.653 1.147-1.988.024-.335-.15-1.173-.279-1.269-.127-.096-.677-1.34-.7-1.556 0 0-.24-.096-.264.288-.024.382-.167.837-.167.837s.478 1.219.526 1.304c.048.085.932 1.042-.072 1.09-1.005.048-1.483-.689-1.555-1.553 0 0-.454-1.726-.884-2.133 0 0-.168.359-.12.622 0 0-.24.43-.167.646.071.216.526.853.478 1.349-.048.495.215 1.788-1.602 1.955 0 0-1.1.094-.766-1.976 0 0 .096-1.28-.406-1.615M95.028 17.98c-.078-.006-.156-.011-.226-.04-.079-.034-.123-.105-.184-.158l-.074.064-1.562 2.107-2.455-1.66-1.34 2.394 2.36 1.628 1.53-2.043 2.265 1.564 1.594-2.235-2.04-1.532.132-.088zM132.33 38.34c-1.594.223-5.116-1.054-5.116-1.054l1.417-2.81c3.317 1.597 4.114 2.97 4.114 2.97.893 1.053-.415.894-.415.894m-5.165-2.873c-.096.19-1.977 1.34-1.977 1.34-1.882-.606-2.01-1.755-2.01-1.755-.414-2.267 2.233-2.905 2.233-2.905 2.264.798 1.754 3.32 1.754 3.32m-35.873 2.298c-.743.207-1.237.104-1.558-.08-.388-.221-.55-.695-.416-1.122 1.043-3.345 5.13-5.214 5.13-5.214s.16 3.383.16 4.405c0 1.021-1.594 1.532-3.316 2.01m40.241-4.724c-2.678-1.66-3.858-2.873-3.858-2.873.255.16 1.658 0 1.658 0 .096-.159-.255-.638-.255-.638l-4.21-2.617-.031 2.777.128.447c-1.531 1.245-2.233 3.064-2.233 3.064-1.307 3.256-.35 4.98-.35 4.98-.32.16-2.456.798-2.456.798-4.592.638-5.082-.883-5.197-2.301-.128-1.563-.096-1.274-.096-1.274-.294.058-1.4 1.798-1.572 2.07-.015.025-.027.05-.04.075-1.226 2.12-2.19 2.087-3.14 2.12-2.605.094-2.647-1.76-2.295-2.542.295-.654.096-.925.096-.925-.287.031-2.196 2.404-3.093 3-5.198 3.46-7.876-1.436-7.876-1.436-.224-1.309-.542-7.885-.542-7.885 2.36-2.266 3.57-4.277 3.57-4.277.48-.67.67-1.82.67-1.82-1.052 1.947-4.432 4.756-4.432 4.756s-.446-2.298-.446-2.553c0-.256-.319-.766-.319-.766l-1.18 2.777.255 2.139c-3.316 2.49-4.081 3.543-4.081 3.543-5.421 8.619.956 6.671.956 6.671 3.079-1.166 3.468-2.698 3.505-2.885a.226.226 0 0 1 .014-.044l.008-.02c.097-.216.42-.139.411.099-.067 1.947 1.005 3.744 1.005 3.744 2.71 3.288 7.11 1.022 7.11 1.022 1.148-.479 3.349-3.129 3.349-3.129-.16 1.213-.098 1.646.16 2.107 1.666 2.997 4.846.288 4.846.288.542-.416 2.168-3.033 2.168-3.033.517 2.74 2.658 3.041 2.855 3.063.011.001.02.003.031.006 3.252.943 7.764-2.111 7.764-2.111.766.255 4.663 1.248 6.25 1.5 2.417.383 3.285-2.841 3.285-2.841 1.339-3.224-2.392-5.076-2.392-5.076M103.71 2.135c.228-.394.854-.507.854-.507.674-.212.903.204.903.204.28.303.189.956.189.956.04.642-.304 1.32-.304 1.32-.37-.208-1.273-1.045-1.273-1.045-.67-.765-.368-.928-.368-.928m.786 3.016c-.138.336-1.46 1.553-1.46 1.553-1.154 1.145-3.287 2.888-3.287 2.888-2.084 1.607-3.29 2.443-3.29 2.443-2.744 1.85-2.467 1.89-2.467 1.89.087.127.418-.04.418-.04.756-.386 1.583-.935 1.583-.935 1.592-.973 2.439-1.53 2.439-1.53 1.526-1.007 2.196-1.564 2.196-1.564 1.438-1.207 1.865-1.658 1.865-1.658 1.065-.974 1.656-1.741 1.656-1.741.901-1.262.832-.963.832-.963.141.03.485.564.485.564.304.323.511.83.511.83.091-.02.39-1.088.39-1.088.028-.293-.195-.688-.195-.688-.125-.286-.552-.759-.552-.759-.039-.088.24-.5.24-.5.325-.549.498-1.256.498-1.256.176-1.004-.069-1.689-.069-1.689-.242-.867-1.434-.477-1.434-.477C103.54 1.138 103 2.788 103 2.788c-.123.562.118.958.118.958.348.71 1.38 1.405 1.38 1.405"/>
    </g>
</svg>
