<svg width="92" height="92" viewBox="0 0 92 92" xmlns="http://www.w3.org/2000/svg">
    <g fill="#CDAC61" fill-rule="evenodd" opacity=".6">
        <path d="M40.365 55.161c-4.868 0-7.782 2.914-7.782 7.782v11.27c0 4.868 2.914 7.782 7.782 7.782h11.27c4.868 0 7.782-2.914 7.782-7.782v-11.27c0-4.868-2.914-7.782-7.782-7.782h-11.27zm13.187 20.93c-.499.46-1.112.69-1.764.69-.613 0-1.226-.23-1.725-.69L46 72.028l-4.025 4.063c-.498.46-1.112.69-1.763.69-.614 0-1.227-.23-1.725-.69a2.476 2.476 0 0 1 0-3.488l4.063-4.063-4.063-4.025a2.476 2.476 0 0 1 0-3.489 2.476 2.476 0 0 1 3.488 0L46 65.09l4.063-4.064a2.476 2.476 0 0 1 3.489 0c.958.959.958 2.53 0 3.489l-4.064 4.025 4.064 4.063c.958.958.958 2.53 0 3.488z"/>
        <path d="M67.85 30.169c-2.147-9.584-8.05-16.445-16.407-19.052-9.123-2.798-19.703-.077-26.335 6.862-5.865 6.095-7.781 14.49-5.52 23.421-8.165 1.994-11.921 9.124-11.921 15.564 0 7.206 4.715 15.295 15.218 16.023h9.698V62.905c0-4.868 2.914-7.781 7.782-7.781h11.27c4.868 0 7.782 2.913 7.782 7.781v10.082h3.258a21.695 21.695 0 0 0 14.643-5.673c6.249-5.444 8.549-13.992 6.019-22.31-2.339-7.667-8.165-13.187-15.487-14.835z" fill-rule="nonzero" opacity=".4"/>
    </g>
</svg>
