<svg width="20" height="20" viewBox="0 0 20 20" xmlns="http://www.w3.org/2000/svg">
    <g fill="none" fill-rule="evenodd">
        <path d="M0 0h20v20H0z"/>
        <path d="M3.333 15h13.334a.836.836 0 0 0 .833-.833.836.836 0 0 0-.833-.834H3.333a.836.836 0 0 0-.833.834c0 .458.375.833.833.833zm0-4.167h13.334A.836.836 0 0 0 17.5 10a.836.836 0 0 0-.833-.833H3.333A.836.836 0 0 0 2.5 10c0 .458.375.833.833.833zm-.833-5c0 .459.375.834.833.834h13.334a.836.836 0 0 0 .833-.834.836.836 0 0 0-.833-.833H3.333a.836.836 0 0 0-.833.833z" fill="#000"/>
    </g>
</svg>
