<svg width="92" height="92" viewBox="0 0 92 92" xmlns="http://www.w3.org/2000/svg">
    <g fill="#CDAC61" fill-rule="nonzero" opacity=".6">
        <path d="M76.28 34.423a2.667 2.667 0 0 0-2.683 2.684v17.825a2.667 2.667 0 0 0 2.683 2.683c.767 0 1.419-.038 2.07-.077 5.98-.69 5.98-4.906 5.98-7.973v-7.13c0-3.067 0-7.283-6.056-7.935a27.937 27.937 0 0 0-1.994-.077z"/>
        <path d="M21.16 73.178C11.002 71.722 7.667 66.202 7.667 53.13V38.87c0-15.717 4.791-20.508 20.508-20.508h21.39c2.223 0 4.217.076 6.018.306L21.16 73.178zM70.07 53.13c0 11.309-9.2 20.509-20.508 20.509H28.555l33.657-53.284C68.039 23 70.07 28.597 70.07 38.87v14.26z" opacity=".4"/>
        <path d="M13.803 84.832c-1.341-.843-1.763-2.607-.881-3.948l46-72.834c.843-1.341 2.645-1.725 3.948-.881 1.342.843 1.763 2.606.882 3.948l-46 72.833c-.537.882-1.457 1.342-2.415 1.342a2.764 2.764 0 0 1-1.534-.46z"/>
    </g>
</svg>
