<svg width="30" height="28" viewBox="0 0 30 28" xmlns="http://www.w3.org/2000/svg">
    <g fill="#FFF" fill-rule="nonzero">
        <path d="M4.667 6.265c0 3.426 2.68 6.2 6.173 6.32.107-.014.213-.014.293 0h.094a6.317 6.317 0 0 0 6.106-6.32A6.34 6.34 0 0 0 11-.07a6.34 6.34 0 0 0-6.333 6.334zM4.241 16.13c-1.693 1.133-2.626 2.667-2.626 4.307 0 1.64.933 3.16 2.613 4.28 1.867 1.253 4.32 1.88 6.773 1.88 2.454 0 4.907-.627 6.774-1.88 1.68-1.134 2.613-2.654 2.613-4.307-.013-1.64-.933-3.16-2.613-4.28-3.72-2.48-9.787-2.48-13.534 0zM21.48 12.209h-.067c-.08 0-.16 0-.227.027-1.294.066-2.48-.347-3.373-1.107 1.373-1.227 2.16-3.067 2-5.067a6.188 6.188 0 0 0-1.027-2.906 4.79 4.79 0 0 1 6.867 3.893c.213 2.587-1.627 4.853-4.174 5.16z"/>
        <path d="M25.998 22.559c-1.334.733-3.014 1.08-4.68 1.04.96-.867 1.52-1.947 1.626-3.094.134-1.653-.653-3.24-2.226-4.506-.894-.707-1.934-1.267-3.067-1.68 2.947-.854 6.653-.28 8.933 1.56 1.227.986 1.854 2.226 1.734 3.506-.107 1.294-.934 2.414-2.32 3.174z"/>
    </g>
</svg>
