<svg width="30" height="28" viewBox="0 0 30 28" xmlns="http://www.w3.org/2000/svg">
    <g fill="#FFF" fill-rule="evenodd">
        <path d="M11.866-.069a2.515 2.515 0 0 0-2.52 2.507v1.253a2.504 2.504 0 0 0 2.507 2.507h6.28a2.504 2.504 0 0 0 2.507-2.507V2.438c.013-1.387-1.12-2.507-2.507-2.507h-6.267z" fill-rule="nonzero"/>
        <path d="M18.132 7.544h-6.267a3.864 3.864 0 0 1-3.853-3.853c0-.747-.8-1.214-1.467-.867a5.962 5.962 0 0 0-3.16 5.267v12.546c0 3.28 2.68 5.96 5.96 5.96h11.307c3.28 0 5.96-2.68 5.96-5.96V8.091c0-2.28-1.28-4.267-3.16-5.267-.667-.347-1.467.12-1.467.867a3.864 3.864 0 0 1-3.853 3.853zM14.12 19.571c-.2.2-.454.293-.707.293a.989.989 0 0 1-.707-.293l-2-2a1.006 1.006 0 0 1 0-1.414 1.006 1.006 0 0 1 1.414 0l1.293 1.294 4.627-4.627a1.006 1.006 0 0 1 1.413 0 1.006 1.006 0 0 1 0 1.413l-5.333 5.334z"/>
    </g>
</svg>
