<svg width="30" height="28" viewBox="0 0 30 28" xmlns="http://www.w3.org/2000/svg">
    <g fill="#FFF" fill-rule="evenodd">
        <path d="M9.413-.069c-4.853 0-7.746 2.894-7.746 7.747v11.173c0 3.747 1.72 6.32 4.746 7.294.88.306 1.894.453 3 .453h11.174c1.106 0 2.12-.147 3-.453 3.026-.974 4.746-3.547 4.746-7.294V7.678c0-4.853-2.893-7.747-7.746-7.747H9.413zm13.547 24.32c-1.293-2.546-4.36-4.36-7.96-4.36-3.6 0-6.653 1.8-7.96 4.36h-.013c-2.227-.72-3.36-2.533-3.36-5.386V7.678c0-3.76 1.986-5.747 5.746-5.747h11.174c3.76 0 5.746 1.987 5.746 5.747v11.173c0 2.854-1.12 4.654-3.373 5.4z"/>
        <path d="M10.23 12.705a4.78 4.78 0 0 0 4.773 4.786 4.78 4.78 0 0 0 4.773-4.786 4.769 4.769 0 0 0-4.773-4.774 4.769 4.769 0 0 0-4.774 4.774z" fill-rule="nonzero"/>
    </g>
</svg>
